<svg xmlns="http://www.w3.org/2000/svg" viewBox="341.64 736.81 258.18 398.41" role="img" aria-label="Provincia de Mendoza, Argentina">
  <!-- Silueta de la Provincia de Mendoza. Contorno derivado de
       commons.wikimedia.org/wiki/File:Mendoza_in_Argentina.svg (datos geográficos
       de dominio público), recoloreado a la paleta de marca. -->
  <path d="m 483.794,754.53104 c 1.75,2.39 3.94,2.31 6.38,1.54 1.77,-0.55 3.55,-0.59 5.32,-1.05 2.35,-0.61 4.35745,-4.95281 6.50745,-2.89281 2.41,2.31 1.36,5.26 4.92,6.45 l 0.84,0.27 c 0.83,0.28 0.91,0.44 1.32,1.21 2.35,4.45 5.65,3.66 9.88,3.37 2.94,2.58 6.98658,-2.66516 8.14658,-1.63516 l 0.37,0.49 c 1.18,1.52 2.06155,-1.12045 3.72155,-0.99045 0.37,0.03 8.13311,9.984 8.42311,10.504 l 0.97131,1.89442 c 1.37,0.76 2.16,1.57 2.52,3.13 l 0.12,0.59 c 0.5,2.54 1.58,2.5 1.59,5.7 0,1.78 1.32,1.81 1.68,4.7 0.2,1.64 0.25,3.54 0.77,5.11 1.31,0.81 2.35,1.52 2.49,3.14 l 0.05,0.46 c 0.03,0.29 0.1,0.67 0.31,1.22 l 0.42,0.54 c 1.65,2.21 -0.99,3.7 -1.03,4.41 -0.07,1.33 0.73,2.92 0.98,4.26 l 0.03,0.29 c -0.05,1.65 -1.51,2.69 -1.51,3.45 0,1.67 2.62,2.18 1.64,5.84 -0.12,0.45 -0.28,0.89 -0.34,1.33 0.67,2.03 1.35,1.96 0.98,4.6 -0.47,3.35 1.25,4.26 -0.15,7.57 -0.48,1.16 0.75,2.93 0.74,5.06 -0.02,2.61 2.03,2.87 1.35,7.42 -0.33,2.16 -0.07,1.71 0.86,3.6 1.74,3.54 3.55,6.62 6.05,9.65 2.79,3.38 1.61,5.33 2.72,7.05 l 0.25,0.39 c 2.39,3.86 2.07823,6.17813 6.18823,8.72813 6.13,3.82 3.13582,6.03003 6.23582,8.90003 0.48,0.44 -0.45405,1.92184 0.43595,2.86184 l 0.25,0.38 c 0.16,0.35 0.19,0.95 0.01,1.53 l -0.1,0.3 c 1.89,2.07 1.2,3.36 0.85,5.62 -0.35,2.27 -0.15,2.55 -0.14,4.55 0,1.36 -0.75,2.72 -2.87,2.66 l -0.28,-0.19 c -0.16,0.58 -0.43,1.21 -0.93,1.43 0.08,1.72 1.83,0.96 0.91,4.74 -0.09,0.41 -0.41,1.5 -0.36,1.9 0.84,1.77 1,1.41 0.25,3.28 1.52,2.31 2.44,2.15 2.42,5.61 -0.01,0.77 -0.08,1.56 -0.09,2.35 0,0.3 1.46,6.26 1.5,6.35 0.66,1.32 2.2,1.45 3.3,4.22 1.03,2.58 2.94,6.87 4.96,8.68 1.31,1.17 3.94,9.79 3.94,11.17 0,1.19 -0.71,2.79 -0.5,3.82 0.79,3.9 3.1,6.95 1.95,10.99 -0.19,0.68 -0.44,1.37 -0.47,2.09 0.04,0.06 0.12,0.24 0.16,0.31 l 0.19,0.28 0.26,0.36 c 0.37,0.55 0.63,1.17 0.63,1.84 0,1.2 -0.47,1.94 -0.98,2.44 l -0.21,0.2 0.08,0.33 c 0.46,1.87 1.2,4.1 0.54,6.01 -0.29,0.83 -0.43,1.29 -0.43,1.91 0,3.99 0.44,7.87 -1.81,11.38 -1.36,2.13 -0.53,5.14 -0.83,7.57 -0.43,3.42996 -1.53,6.71996 -2.62,9.97996 -0.12,0.37 -0.12,0.71 -0.06,1.19 l 0.13,0.86 c 0.34,2.62 -0.93,2.7 -0.83,4.07 l 0.03,0.45 c 0.04,1.45 -0.63,1.68 -1.07,2.76 0.02,0.13 1.23,2.16 1.34,2.34 v 0.06 h -1.46 c -32.91,0.05 -65.83,0.18 -98.75,-0.08 0.09,3.66 -0.11,7.49 -0.31,11.14 l 2.77,-0.01 c 0.25,31.74 -0.26,63.5 -0.1,95.25 h 0.02 c -0.04,0.47 -0.06,0.94 -0.08,1.41 -1.26,-0.02 -2.29,-0.62 -3.48,-0.74 -1.64,-0.16 -3.29,-0.33 -4.91,-0.57 l -0.37,0.05 c -4.52,0.62 -5.25,-4.57 -7.28,-7.03 -0.45,-0.2 -2.5,0.25 -3.15,0.25 -0.95,0 -1.6,-0.31 -2.11,-0.63 l -0.56,-0.38 c -0.15,-0.09 -0.29,-0.16 -0.43,-0.22 -4.2,-0.41 -3.47,1.56 -6.94,-2.89 -0.51,-0.66 -1.13,-1.1 -2.2,-1.19 -2.41,0.33 -3.06,1.53 -5.87,1.07 -2.26,-0.37 -4.54,-0.93 -6.75,-1.57 -5.11,-1.48 -3.34,-7.26 -5.26,-9.52 -1.72,-2.02 -7.49,-3.13 -10.19,-4.56 -2.18,-1.15 -7.44,0.7 -9.67,1.26 l -0.45,0.1 c -3.05,0.57 -9.85,-0.46 -12.5,-1.55 -2.66,-1.1 -7.01,-4.22 -8.62,-6.79 -0.44,-0.72 -2.72,-3.65 -2.88,-4.19 -0.42,-1.38 0.87,-3.01 1.53,-4.06 0.37,-0.59 0.13,-4.99 -0.29,-6.45 l -0.26,-0.64 c -1.55,-0.24 -3.1,-1.26 -3.8,-2.8 -1.16,-0.33 -2.29,-1.1 -2.77,-2.24 0.09,-1.11 -0.2,-2.03 -0.64,-3.04 -1.64,-3.76 -5.43,-3.1 -5.1,-5.72 l -0.13,-0.17 c -0.21,-0.28 -1.5,-1.07 -2.17,-1.98 -1.69,-0.75 -3.95,-0.79 -5.48,-1.75 -0.81,-0.51 -3.17,-4.43 -3.49,-5.42 -0.17,-0.52 -1.03,-4.55 -1.23,-5.52 l -0.36,-1.74 c -0.35,-1.68 -1.42,-3.14 -3.3,-2.68 -0.5,0.12 -0.75,1.18 -1.54,1.47 -2.02,-0.18 -2.49,-2.52 -3.1,-4.05 -1.33,-3.34 0.92,-3.32 1.13,-4.21 0.5,-2.18 0.47,-5.06 -1.27,-6.7 -0.56,-0.53 -1.28,-1.38 -2.09,-1.55 l -0.03,-0.01 c 0.34,-1.25 0.21,-2.55 0.64,-4.04 0.26,-0.92 2.03,-2.38 2.1,-3.04 0.18,-1.63 -1.69,-3.18 -1.89,-4.84 -0.15,-1.28 1.82,-1.77 1.33,-2.65 -0.24,-0.31 -1.72,-0.16 -2.29,-0.45 -0.11,-0.1 -0.14,-0.32 -0.14,-0.45 0.16,-0.87 1.15,-1.81 1.64,-2.51 1.12,-1.62 1.17,-2.65 3.49,-3.08 0.14,-0.34 0.51,-0.44 0.61,-0.85 0.05,-0.18 -0.08,-0.39 -0.16,-0.52 -0.37,-0.59 -0.99,-1.09 -1.29,-1.69 -0.77,-1.53 -0.23,-3.59 -1.72,-6.24996 -0.87,-1.53 -1.97,-3.16 -1.07,-5 0.09,-0.18 0.23,-0.6 0.47,-0.66 l 0.17,-0.48 c -0.11,-0.76 -0.99,-2.42 -1.35,-3.11 0.52,-0.9 0.27,-0.84 1.2,-2.09 0.25,-1.6 -2.73,-2.9 -3.15,-5.02 -0.35,-1.74 0.11,-3.17 0.79,-4.71 0.09,-0.21 0.7,-1.33 0.61,-1.57 -1.78,-4.74 -5.09,-1.5 -8.08,-4.23 -0.49,-0.45 -1.11,-0.91 -1.37,-1.55 -0.37,-0.91 0.68,-1.57 0.87,-2.25 0.17,-0.61 0.03,-1.26 0.44,-1.8 1.7,-2.27 5.67,0.88 8.93,-1.89 0.67,-0.58 0.83,-1.27 1.35,-1.92 0.3,-0.36 0.87,-0.51 1.15,-0.95 1.14,-1.77 -1.67,-5.51 0.45,-9.67 l 0.13,-0.25 c 0.65,-1.47 0.44,-2.79 0.75,-4.32 0.18,-0.85 3.76,-4.76 4.51,-8.29 0.06,-0.32 0.23,-0.9 0,-1.21 -0.53,-0.26 -2.82,-1.58 -2.97,-1.81 -0.72,-1.66 1.44,-2.3 2.62,-2.52 1.44,-1.44 -0.99,-1.85 2.38,-3.27 0.77,-0.33 0.01,-2.63 0.13,-3.25 0.14,-0.77 1.43,-2.59 1.96,-3.3 1.11,-1.48 2.36,-2.64 2.99,-4.41 0.21,-0.61 0.4,-1.75 0.93,-2.16 1.83,-1.41 3.6,-1.33 4.33,-3.94 1,-0.05 2.25,-1.21 2.53,-1.89 -0.22,-0.61 -1.07,-1.92 -1.07,-2.38 -0.02,-1.41 1.93,-0.85 -0.63,-5.1 -0.06,-0.09 -0.08,-0.22 -0.11,-0.32 l 0.21,-0.3 c 0.27,-0.09 0.9,0 1.19,0.01 0.33,0 1.84,-1.84 2.51,-2.05 l 0.41,0.06 c 0.48,0.33 2.8,2.97 3.24,2.94 l 0.55,-0.23 0.55,-1.23 c 1.15,-0.79 4.42,-2.01 4.73,-3.51 0.01,-0.24 -0.25,-0.59 -0.41,-0.75 0.73,-3.23 -0.85,-3.88 -3.15,-5.89 0.26,-1.14 1.84,-2.65 1.86,-3.11 0.01,-0.47 -0.63,-1.38 -0.63,-2 0,-0.96 1.9,-2.16 1.44,-4.77 -0.09,-0.56 -1.78,-1.46 -2.09,-2.66 -0.26,-1 0.01,-2.84 -0.21,-3.46 -3.08,-8.9 0.26,-6.29 0.64,-9.06 0.28,-1.98 -1.83,-3.69 -1.55,-5.22 0.23,-1.32 0.99,-2.91 0.99,-4.22 0.01,-1.13 -0.32,-2.35 -0.19,-3.48 0.18,-1.52 1.45,-3.02 1.89,-4.54 0.55,-1.89 1.66068,-3.14243 2.70068,-5.84243 0.57,-1.46 2.03932,-2.02757 1.24932,-3.14757 0.53,-2.05 -1.96,-4.47 -3.14,-5.9 -0.71,-0.86 -3.739,-4.52216 -5.289,-3.40216 -1.36,0.99 -0.271,6.12216 -4.861,6.79216 -2.5,0.36 -2.3,-6.69 -2.6,-8.07 -0.33,-1.49 -1.18,-2.47 -1.69,-3.78 -0.22,-0.57 0.24,-1.22 0.18,-1.77 -0.24,-2.04 -0.58,-4.11 -1.53,-5.97 -0.03,-0.36 0.94,-0.76 1.16,-0.87 1.79,-0.82 2,-0.7 2.77,-2.6 -0.08,-0.13 -0.19,-1.47 -0.23,-1.7 0.51,-0.76 1.57,-2.38 1.79,-3.29 0.63,-2.61 -1.74,-2.21 -3,-3.63 -0.5,-0.57 -0.17,-2.01 -0.64,-2.33 -0.44,-0.05 -1.17,-0.52 -1.51,-0.77 -0.52,-1.42 -0.25,-0.6 -1.21,-1.41 -0.22,-1.86 -1.63,-2.83 -2.25,-4.5 -0.38,-1.04 -0.11,-2.82 -0.15,-3.91 -0.15,-3.55 1.04036,-5.76762 1.04036,-5.76762 0,0 6.90073,-3.62169 8.97073,-3.41169 2.34,0.24 2.52673,1.99808 5.29673,1.44808 1.82,-0.36 9.78585,-3.264 11.53585,-3.644 3.31,-0.72 -2.52428,-13.59288 0.81572,-13.71288 l 0.0606,-2.91189 c 5.1,-0.19 1.84,-6.38 3.25,-8.53 1.45,-2.22 4,-1.83 6.17,-2.9 3.63,-1.8 2.61,-3.02 7.28,-3.02 0.8,0 1.64,-0.07 2.43,0.11 1.87,0.44 3.02,1.65 4.62,-0.45 0.62,-0.8 0.7,-2.03 1.3,-2.89 0.65,-0.92 1.99,-0.13 2.53,-1.07 1.08,-1.91 1.07,-2.35 3.13,-1.86 4.43,1.04 4.6,7.1 7.97,8.37 1.03,0.38 2.34,-0.13 3.35,-0.36 2,-0.47 2.28899,15.93385 2.28899,15.93385 l 16.13091,0.52213 10.4501,-13.34598 c 0,0 0.04,-2.04 1.17,-3.16 1.83,-1.81 3.72,0.87 5.39,1.33 0.92,0.26 2.29,0.27 3.19,0.08 0.449,-0.089 0.31,0.17 0.31,0.17 z" fill="#2F6A39" stroke="#214E29" stroke-width="2.5" stroke-linejoin="round"/>
</svg>
